<svg width="754" height="754" viewBox="0 0 754 754" fill="none" xmlns="http://www.w3.org/2000/svg">
<g clip-path="url(#clip0_915_285)">
<path fill-rule="evenodd" clip-rule="evenodd" d="M86.2331 396.616C86.2331 446.26 98.7014 492.993 120.646 533.858L107.604 540.417C83.8924 496.196 71.5037 446.79 71.5442 396.613C71.5442 346.708 83.6478 299.622 104.949 257.975L117.206 266.057C96.8033 306.552 86.1944 351.271 86.2331 396.616ZM159.116 468.426C151.796 471.884 144.05 474.105 136.22 476.071C132.742 476.951 123.362 478.548 121.965 473.341C120.592 468.209 129.474 464.715 132.939 463.845C138.598 462.415 143.954 460.934 149.25 458.435C153.467 456.431 162.108 454.671 165.923 458.551C169.99 462.671 161.859 467.125 159.116 468.426ZM258.934 378.341C264.17 378.341 269.192 380.421 272.895 384.124C276.598 387.826 278.678 392.848 278.678 398.085C278.678 403.321 276.598 408.343 272.895 412.045C269.192 415.748 264.17 417.828 258.934 417.828C256.341 417.829 253.773 417.318 251.377 416.326C248.981 415.334 246.804 413.88 244.97 412.047C243.137 410.213 241.682 408.036 240.689 405.641C239.697 403.245 239.186 400.678 239.185 398.085C239.17 387.171 248.021 378.341 258.934 378.341ZM204.427 408C204.427 424.411 191.136 437.683 174.736 437.683C158.344 437.683 145.038 424.384 145.038 408C145.038 391.615 158.332 378.321 174.736 378.321C191.136 378.321 204.427 391.6 204.427 408ZM145.038 305.547C147.633 305.545 150.203 306.054 152.601 307.046C154.999 308.038 157.178 309.492 159.013 311.327C160.848 313.161 162.304 315.339 163.298 317.736C164.291 320.134 164.802 322.703 164.802 325.298C164.802 336.209 155.959 345.039 145.038 345.039C139.802 345.039 134.781 342.959 131.079 339.257C127.377 335.555 125.297 330.534 125.297 325.298C125.297 314.397 134.127 305.547 145.038 305.547ZM108.163 391.154C91.2165 391.154 110.423 378.878 118.527 378.878C135.473 378.878 116.267 391.154 108.163 391.154ZM117.817 235.227C169.662 152.269 260.159 95.8674 363.933 91.478L363.933 106.179C265.11 110.544 179.141 164.24 129.987 243.249L117.817 235.227ZM416.216 52.2738L416.206 66.9751C515.046 71.3398 601.011 125.036 650.157 204.045L662.332 196.038C610.48 113.065 519.985 56.6632 416.216 52.2738ZM633.043 562.879L619.946 556.318C570.203 631.843 486.23 682.788 390.067 687.052V701.729C491.78 697.44 580.742 643.163 633.043 562.879ZM363.933 701.729L363.933 687.052C267.789 682.788 183.816 631.843 134.053 556.318L120.959 562.879C173.27 643.163 262.227 697.428 363.933 701.729ZM649.07 257.995C671.057 300.893 682.506 348.412 682.47 396.616C682.47 448.584 669.388 497.538 646.403 540.419L633.361 533.883C655.298 492.993 667.766 446.257 667.766 396.616C667.766 349.638 656.575 305.323 636.794 266.054L649.07 257.995ZM190.113 221.66C190.113 238.047 203.407 251.338 219.791 251.338C236.191 251.338 249.495 238.062 249.482 221.66C249.482 205.26 236.191 191.969 219.791 191.969C203.404 191.969 190.113 205.26 190.113 221.66ZM288.622 285.805C288.622 296.716 297.468 305.547 308.366 305.547C313.604 305.548 318.628 303.469 322.334 299.767C326.039 296.065 328.123 291.043 328.127 285.805C328.127 274.895 319.277 266.057 308.366 266.057C297.465 266.057 288.622 274.895 288.622 285.805ZM293.85 223.437C299.56 224.992 303.824 227.397 307.58 232.05C314.587 240.716 338.663 230.89 330.722 221.088C324.935 213.916 317.401 209.258 308.524 206.833C302.38 205.142 294.996 206.712 290.67 211.612C286.991 215.792 288.127 221.872 293.85 223.437ZM309.877 183.752C312.309 184.725 314.91 185.206 317.529 185.164C320.124 185.165 322.693 184.656 325.091 183.664C327.488 182.672 329.667 181.217 331.502 179.383C333.337 177.549 334.793 175.371 335.786 172.974C336.779 170.577 337.29 168.008 337.29 165.413C337.29 154.502 328.44 145.672 317.529 145.672C314.91 145.63 312.309 146.11 309.877 147.084C307.445 148.058 305.231 149.506 303.364 151.344C301.497 153.181 300.014 155.372 299.002 157.788C297.99 160.205 297.469 162.798 297.469 165.418C297.469 168.038 297.99 170.631 299.002 173.047C300.014 175.464 301.497 177.655 303.364 179.492C305.231 181.33 307.445 182.778 309.877 183.752ZM628.294 312.354C645.191 312.354 625.218 323.738 617.701 323.738C600.831 323.726 620.789 312.354 628.294 312.354ZM497.457 418.211C499.853 419.204 502.421 419.716 505.015 419.716C507.61 419.718 510.18 419.208 512.578 418.216C514.976 417.224 517.154 415.769 518.989 413.934C520.824 412.099 522.279 409.92 523.271 407.523C524.264 405.125 524.773 402.555 524.771 399.96C524.772 397.366 524.261 394.798 523.268 392.401C522.275 390.005 520.82 387.828 518.985 385.994C517.15 384.16 514.972 382.706 512.575 381.715C510.178 380.724 507.609 380.214 505.015 380.216C499.779 380.218 494.758 382.298 491.056 386.001C487.353 389.703 485.273 394.724 485.271 399.96C485.27 402.554 485.78 405.122 486.771 407.519C487.763 409.916 489.217 412.094 491.051 413.928C492.884 415.763 495.061 417.218 497.457 418.211ZM559.317 379.923C571.658 379.923 548.126 390.107 542.918 390.107C530.59 390.107 554.122 379.923 559.317 379.923ZM547.946 444.855C530.871 444.855 547.588 429.732 557.555 429.732C574.645 429.717 557.9 444.855 547.946 444.855ZM592.425 492.871C594.823 493.863 597.393 494.373 599.988 494.371C602.583 494.372 605.152 493.862 607.55 492.87C609.947 491.877 612.126 490.422 613.961 488.587C615.795 486.753 617.25 484.574 618.243 482.177C619.235 479.779 619.745 477.21 619.744 474.615C619.744 463.716 610.901 454.886 599.988 454.886C589.09 454.886 580.232 463.716 580.232 474.615C580.23 477.21 580.74 479.78 581.732 482.177C582.724 484.575 584.179 486.754 586.014 488.589C587.849 490.424 590.027 491.879 592.425 492.871ZM580.259 386.649C580.259 403.033 593.545 416.32 609.93 416.32C626.315 416.32 639.601 403.046 639.628 386.649C639.628 370.25 626.327 356.958 609.93 356.958C593.545 356.958 580.259 370.25 580.259 386.649ZM322.256 665.995C305.246 665.995 323.762 652.89 332.403 652.89C349.414 652.888 330.897 665.995 322.256 665.995ZM317.529 494.371C328.44 494.371 337.29 503.204 337.29 514.115C337.29 525.028 328.44 533.858 317.529 533.858C314.91 533.9 312.309 533.42 309.878 532.446C307.446 531.472 305.232 530.025 303.365 528.187C301.499 526.35 300.016 524.159 299.004 521.743C297.992 519.327 297.471 516.734 297.471 514.115C297.471 511.495 297.992 508.902 299.004 506.486C300.016 504.07 301.499 501.88 303.365 500.042C305.232 498.205 307.446 496.757 309.878 495.783C312.309 494.81 314.91 494.329 317.529 494.371ZM266.729 540.57C283.826 540.57 267.516 556.165 257.248 556.165C240.166 556.165 256.464 540.57 266.729 540.57ZM278.675 566.581C295.079 566.581 308.366 579.865 308.366 596.264C308.366 612.661 295.079 625.948 278.675 625.948C262.288 625.948 248.997 612.649 248.997 596.264C248.997 579.862 262.288 566.581 278.675 566.581ZM194.48 543.81C205.391 543.81 214.241 552.641 214.241 563.554C214.241 574.465 205.391 583.298 194.48 583.298C189.244 583.298 184.222 581.218 180.519 577.515C176.816 573.812 174.736 568.791 174.736 563.554C174.736 558.318 176.816 553.296 180.519 549.593C184.222 545.891 189.244 543.81 194.48 543.81ZM432.539 645.689C427.303 645.688 422.282 643.607 418.58 639.905C414.877 636.202 412.797 631.181 412.795 625.945C412.793 623.351 413.303 620.782 414.294 618.385C415.285 615.988 416.74 613.81 418.573 611.976C420.407 610.141 422.584 608.685 424.98 607.692C427.377 606.7 429.945 606.189 432.539 606.189C435.135 606.188 437.705 606.698 440.103 607.69C442.501 608.682 444.68 610.137 446.516 611.972C448.352 613.806 449.808 615.985 450.802 618.382C451.796 620.78 452.307 623.35 452.308 625.945C452.308 636.844 443.45 645.689 432.539 645.689ZM445.9 563.567C429.515 563.567 416.204 550.268 416.204 533.883C416.204 517.496 429.488 504.197 445.9 504.197C462.299 504.197 475.586 517.496 475.586 533.883C475.586 550.27 462.302 563.567 445.9 563.567ZM475.931 607.301C463.642 607.301 487.223 597.245 492.367 597.245C504.631 597.245 481.074 607.301 475.931 607.301ZM550.548 586.31C539.635 586.31 530.792 577.479 530.792 566.581C530.792 563.986 531.303 561.417 532.295 559.02C533.288 556.622 534.743 554.444 536.578 552.609C538.412 550.775 540.59 549.319 542.987 548.326C545.385 547.333 547.954 546.822 550.548 546.822C553.143 546.821 555.713 547.332 558.11 548.324C560.508 549.317 562.686 550.772 564.521 552.607C566.356 554.442 567.811 556.621 568.803 559.018C569.796 561.416 570.306 563.986 570.304 566.581C570.304 577.479 561.459 586.31 550.548 586.31ZM491.921 106.179C502.846 106.179 511.677 115.01 511.677 125.923C511.677 136.836 502.846 145.672 491.921 145.672C486.684 145.67 481.662 143.589 477.96 139.886C474.257 136.182 472.177 131.16 472.177 125.923C472.175 123.33 472.684 120.761 473.675 118.365C474.667 115.968 476.121 113.791 477.955 111.957C479.789 110.123 481.966 108.669 484.363 107.677C486.759 106.686 489.327 106.177 491.921 106.179ZM449.577 87.6998C466.666 87.6998 451.083 104.062 440.312 104.062C423.223 104.062 438.804 87.6998 449.577 87.6998ZM462.235 271.937C445.85 271.937 432.539 258.646 432.539 242.259C432.539 225.872 445.826 212.58 462.235 212.58C478.634 212.58 491.921 225.872 491.921 242.259C491.921 258.646 478.637 271.937 462.235 271.937ZM492.66 183.843C487.682 187.782 479.886 188.851 474.489 185.152C469.571 181.777 463.551 180.642 457.736 179.546C456.956 179.399 456.18 179.252 455.41 179.101C449.947 178.017 444.83 173.729 447.484 167.641C450.011 161.886 457.846 158.502 463.869 159.69L464.047 159.726C474.465 161.794 484.876 163.861 493.784 169.977C499.117 173.627 496.949 180.462 492.66 183.843ZM508.971 230.066C491.894 230.066 507.071 213.273 518.134 213.273C535.211 213.258 520.034 230.066 508.971 230.066ZM550.548 202.621C539.635 202.621 530.792 193.79 530.792 182.877C530.792 171.964 539.65 163.128 550.548 163.128C555.785 163.128 560.808 165.209 564.511 168.912C568.214 172.615 570.295 177.638 570.295 182.875C570.295 188.112 568.214 193.134 564.511 196.837C560.808 200.54 555.785 202.621 550.548 202.621ZM585.375 194.034C573.087 194.034 596.671 183.964 601.814 183.964C614.103 183.952 590.519 194.034 585.375 194.034Z" fill="#67B4FB"/>
<path d="M86.2334 396.616C86.2334 446.26 98.7017 492.993 120.646 533.858L350.851 400.956L117.206 266.057C96.8035 306.552 86.1947 351.271 86.2334 396.616ZM159.116 468.426C151.796 471.884 144.05 474.105 136.22 476.071C132.743 476.951 123.362 478.548 121.965 473.341C120.592 468.209 129.475 464.715 132.94 463.845C138.598 462.415 143.954 460.934 149.25 458.435C153.467 456.431 162.108 454.671 165.923 458.551C169.99 462.671 161.859 467.125 159.116 468.426ZM258.934 378.341C264.171 378.341 269.192 380.421 272.895 384.124C276.598 387.826 278.678 392.848 278.678 398.085C278.678 403.321 276.598 408.343 272.895 412.045C269.192 415.748 264.171 417.828 258.934 417.828C256.341 417.829 253.773 417.318 251.377 416.326C248.982 415.334 246.805 413.88 244.971 412.046C243.137 410.213 241.682 408.036 240.69 405.641C239.697 403.245 239.186 400.678 239.185 398.085C239.171 387.171 248.021 378.341 258.934 378.341ZM204.427 408C204.427 424.411 191.136 437.683 174.737 437.683C158.345 437.683 145.038 424.384 145.038 408C145.038 391.615 158.332 378.321 174.737 378.321C191.136 378.321 204.427 391.6 204.427 408ZM145.038 305.547C147.633 305.545 150.203 306.054 152.601 307.046C154.999 308.038 157.178 309.492 159.013 311.327C160.849 313.161 162.305 315.339 163.298 317.736C164.291 320.134 164.802 322.703 164.802 325.298C164.802 336.209 155.959 345.039 145.038 345.039C139.803 345.039 134.781 342.959 131.079 339.257C127.377 335.555 125.297 330.534 125.297 325.298C125.297 314.397 134.128 305.547 145.038 305.547ZM108.163 391.154C91.2168 391.154 110.423 378.878 118.527 378.878C135.473 378.878 116.267 391.154 108.163 391.154ZM363.933 91.478V39.2041C240.856 43.6453 133.465 110.519 72.5254 209.078L117.817 235.227C169.662 152.269 260.159 95.8674 363.933 91.478ZM662.332 196.038L707.624 169.889C646.697 71.3152 539.293 4.44118 416.217 0V52.2738C519.985 56.6632 610.48 113.065 662.332 196.038ZM678.347 589.04L633.043 562.879C580.742 643.163 491.781 697.44 390.067 701.729V754C511.091 749.635 616.91 684.896 678.347 589.04ZM649.07 257.995C671.057 300.893 682.507 348.412 682.47 396.616C682.47 448.584 669.388 497.538 646.404 540.419L691.71 566.581C719.136 515.993 734.729 458.077 734.729 396.616C734.729 337.209 720.102 281.192 694.365 231.829L649.07 257.995Z" fill="#414955"/>
<path d="M107.604 540.417C83.8925 496.196 71.5038 446.79 71.5443 396.614C71.5443 346.708 83.6479 299.622 104.949 257.976L59.6429 231.817C33.9101 281.177 19.2705 337.197 19.2705 396.591C19.2705 458.063 34.8664 515.966 62.2972 566.554L107.604 540.417ZM363.933 754V701.729C262.227 697.428 173.27 643.163 120.959 562.879L75.6676 589.041C137.095 684.896 242.922 749.636 363.933 754ZM363.933 106.18C265.11 110.544 179.141 164.24 129.987 243.25L363.933 378.322V106.18ZM219.792 251.339C203.407 251.339 190.113 238.047 190.113 221.66C190.113 205.261 203.404 191.969 219.792 191.969C236.191 191.969 249.482 205.261 249.482 221.66C249.495 238.062 236.191 251.339 219.792 251.339ZM308.366 305.547C297.468 305.547 288.622 296.717 288.622 285.806C288.622 274.895 297.465 266.057 308.366 266.057C319.277 266.057 328.127 274.895 328.127 285.806C328.123 291.044 326.039 296.066 322.334 299.768C318.628 303.47 313.604 305.549 308.366 305.547ZM307.58 232.051C303.824 227.398 299.56 224.992 293.85 223.437C288.127 221.872 286.991 215.792 290.671 211.612C294.996 206.713 302.38 205.143 308.524 206.833C317.401 209.258 324.936 213.917 330.722 221.088C338.663 230.89 314.587 240.716 307.58 232.051ZM317.53 185.165C314.91 185.206 312.309 184.726 309.877 183.752C307.445 182.778 305.231 181.33 303.364 179.493C301.497 177.655 300.014 175.464 299.002 173.048C297.99 170.632 297.469 168.038 297.469 165.418C297.469 162.799 297.99 160.205 299.002 157.789C300.014 155.373 301.497 153.182 303.364 151.344C305.231 149.506 307.445 148.058 309.877 147.085C312.309 146.111 314.91 145.631 317.53 145.672C328.44 145.672 337.291 154.503 337.291 165.413C337.291 168.008 336.779 170.577 335.786 172.974C334.793 175.371 333.337 177.549 331.502 179.383C329.667 181.217 327.488 182.672 325.091 183.664C322.694 184.656 320.124 185.166 317.53 185.165ZM667.767 396.616C667.767 349.639 656.575 305.323 636.794 266.055L403.149 400.954L633.361 533.884C655.298 492.994 667.767 446.258 667.767 396.616ZM628.294 312.354C645.191 312.354 625.218 323.738 617.701 323.738C600.831 323.726 620.789 312.354 628.294 312.354ZM505.015 419.717C502.422 419.716 499.853 419.205 497.457 418.212C495.061 417.219 492.884 415.763 491.051 413.929C489.217 412.094 487.763 409.916 486.772 407.52C485.78 405.123 485.27 402.554 485.272 399.961C485.273 394.725 487.353 389.703 491.056 386.001C494.758 382.299 499.779 380.218 505.015 380.217C507.609 380.215 510.178 380.724 512.575 381.715C514.972 382.707 517.15 384.161 518.985 385.995C520.82 387.828 522.275 390.005 523.268 392.402C524.261 394.798 524.772 397.367 524.771 399.961C524.773 402.556 524.264 405.125 523.272 407.523C522.279 409.921 520.824 412.1 518.989 413.935C517.154 415.769 514.976 417.225 512.578 418.217C510.18 419.209 507.61 419.719 505.015 419.717ZM559.318 379.923C571.658 379.923 548.126 390.107 542.918 390.107C530.59 390.107 554.122 379.923 559.318 379.923ZM547.946 444.855C530.871 444.855 547.589 429.733 557.555 429.733C574.645 429.718 557.9 444.855 547.946 444.855ZM599.988 494.371C597.393 494.373 594.823 493.864 592.425 492.871C590.028 491.879 587.849 490.424 586.014 488.589C584.179 486.754 582.724 484.576 581.732 482.178C580.74 479.78 580.23 477.21 580.232 474.615C580.232 463.717 589.09 454.886 599.988 454.886C610.901 454.886 619.744 463.717 619.744 474.615C619.745 477.21 619.235 479.78 618.243 482.177C617.251 484.575 615.795 486.753 613.961 488.588C612.126 490.423 609.947 491.878 607.55 492.87C605.152 493.863 602.583 494.373 599.988 494.371ZM609.93 416.32C593.546 416.32 580.259 403.034 580.259 386.649C580.259 370.25 593.546 356.959 609.93 356.959C626.327 356.959 639.628 370.25 639.628 386.649C639.601 403.046 626.315 416.32 609.93 416.32Z" fill="#414955"/>
<path d="M363.933 687.052V423.595L134.054 556.318C183.816 631.842 267.789 682.788 363.933 687.052ZM322.257 665.994C305.246 665.994 323.763 652.89 332.403 652.89C349.414 652.888 330.898 665.994 322.257 665.994ZM317.53 494.37C328.44 494.37 337.291 503.203 337.291 514.114C337.291 525.027 328.44 533.858 317.53 533.858C314.911 533.899 312.31 533.419 309.878 532.446C307.446 531.472 305.232 530.024 303.366 528.187C301.499 526.349 300.016 524.159 299.005 521.743C297.993 519.327 297.471 516.734 297.471 514.114C297.471 511.495 297.993 508.902 299.005 506.486C300.016 504.07 301.499 501.879 303.366 500.042C305.232 498.204 307.446 496.756 309.878 495.783C312.31 494.809 314.911 494.329 317.53 494.37ZM266.73 540.569C283.826 540.569 267.516 556.165 257.248 556.165C240.166 556.165 256.465 540.569 266.73 540.569ZM278.675 566.58C295.08 566.58 308.366 579.864 308.366 596.264C308.366 612.661 295.08 625.947 278.675 625.947C262.288 625.947 248.997 612.648 248.997 596.264C248.997 579.862 262.288 566.58 278.675 566.58ZM194.48 543.81C205.391 543.81 214.241 552.641 214.241 563.554C214.241 574.464 205.391 583.298 194.48 583.298C189.244 583.298 184.222 581.217 180.519 577.515C176.817 573.812 174.737 568.79 174.737 563.554C174.737 558.317 176.817 553.295 180.519 549.593C184.222 545.89 189.244 543.81 194.48 543.81ZM619.946 556.318L390.067 423.595V687.052C486.23 682.788 570.204 631.842 619.946 556.318ZM432.539 645.688C427.303 645.687 422.282 643.607 418.58 639.904C414.878 636.202 412.797 631.181 412.796 625.945C412.794 623.351 413.303 620.782 414.294 618.385C415.286 615.988 416.74 613.81 418.573 611.975C420.407 610.14 422.584 608.685 424.981 607.692C427.377 606.699 429.946 606.188 432.539 606.189C435.135 606.187 437.705 606.697 440.103 607.69C442.501 608.682 444.681 610.137 446.516 611.971C448.352 613.806 449.809 615.984 450.802 618.382C451.796 620.779 452.308 623.349 452.308 625.945C452.308 636.843 443.45 645.688 432.539 645.688ZM445.9 563.566C429.515 563.566 416.204 550.267 416.204 533.883C416.204 517.496 429.488 504.197 445.9 504.197C462.299 504.197 475.586 517.496 475.586 533.883C475.586 550.27 462.302 563.566 445.9 563.566ZM475.931 607.3C463.643 607.3 487.224 597.245 492.367 597.245C504.631 597.245 481.075 607.3 475.931 607.3ZM550.549 586.309C539.635 586.309 530.793 577.479 530.793 566.58C530.792 563.986 531.303 561.416 532.296 559.019C533.288 556.622 534.744 554.444 536.578 552.609C538.413 550.774 540.591 549.319 542.988 548.326C545.385 547.333 547.954 546.822 550.549 546.822C553.144 546.821 555.713 547.331 558.111 548.324C560.508 549.316 562.687 550.772 564.521 552.607C566.356 554.442 567.811 556.62 568.804 559.018C569.796 561.416 570.306 563.985 570.305 566.58C570.305 577.479 561.459 586.309 550.549 586.309ZM416.207 66.9746V339.116L650.157 204.045C601.011 125.035 515.046 71.3394 416.207 66.9746ZM491.921 106.179C502.847 106.179 511.677 115.009 511.677 125.923C511.677 136.836 502.847 145.671 491.921 145.671C486.684 145.67 481.662 143.589 477.96 139.885C474.257 136.182 472.177 131.159 472.177 125.923C472.175 123.329 472.684 120.761 473.676 118.364C474.667 115.968 476.121 113.79 477.955 111.957C479.789 110.123 481.966 108.668 484.363 107.677C486.759 106.686 489.328 106.176 491.921 106.179ZM449.577 87.6993C466.667 87.6993 451.083 104.062 440.313 104.062C423.223 104.062 438.804 87.6993 449.577 87.6993ZM462.235 271.937C445.851 271.937 432.539 258.645 432.539 242.258C432.539 225.871 445.826 212.58 462.235 212.58C478.635 212.58 491.921 225.871 491.921 242.258C491.921 258.645 478.637 271.937 462.235 271.937ZM492.661 183.843C487.682 187.781 479.887 188.851 474.489 185.151C468.912 181.324 461.917 180.378 455.411 179.101C449.947 178.016 444.83 173.728 447.485 167.641C450.011 161.886 457.846 158.502 463.869 159.69C474.346 161.77 484.826 163.825 493.784 169.977C499.118 173.627 496.949 180.461 492.661 183.843ZM508.971 230.066C491.894 230.066 507.071 213.272 518.134 213.272C535.212 213.258 520.035 230.066 508.971 230.066ZM550.549 202.62C539.635 202.62 530.793 193.79 530.793 182.877C530.793 171.963 539.65 163.128 550.549 163.128C555.786 163.128 560.808 165.208 564.511 168.911C568.215 172.615 570.295 177.637 570.295 182.874C570.295 188.111 568.215 193.134 564.511 196.837C560.808 200.54 555.786 202.62 550.549 202.62ZM585.376 194.034C573.087 194.034 596.671 183.963 601.814 183.963C614.103 183.951 590.519 194.034 585.376 194.034Z" fill="#414955"/>
</g>
<defs>
<clipPath id="clip0_915_285">
<rect width="754" height="754" fill="white"/>
</clipPath>
</defs>
</svg>
